
<svg version="1.1" xmlns="http://www.w3.org/2000/svg" xmlns:xlink="http://www.w3.org/1999/xlink" x="0px" y="0px"
     viewBox="0 0 1000 700" enable-background="new 0 0 1000 1000" xml:space="preserve" fill="#FFFFFF">
  <style>
    .promo_name, .promo_desc, .promo_help {
      font-family: "Courier New",monospace;
    }
    .promo_name {
      font-size: 4em;
      text-anchor: middle;
    }
    .promo_desc {
      font-size: 3em;
      text-anchor: middle;
    }
    .promo_help {
      font-size: 1.75em;
      text-anchor: middle;
      fill: gray;
    }
  </style>
  <rect width="100%" height="100%" fill="white"/>
  <g>
    <g transform="translate(0.000000,371.000000) scale(0.100000,-0.100000)">
      <path d="M560.3,3054.6C387.7,3012.4,230.4,2882,147.9,2717l-47.9-95.9V108.8v-2512.3l53.7-109.3c57.5-118.9,159.2-220.5,285.8-287.7l82.5-44.1l2577.5-5.7c2330.1-3.8,2581.4-1.9,2623.6,26.8c80.6,51.8,101.6,136.2,101.6,410.4v253.2l55.6,55.6c63.3,63.3,159.2,74.8,249.3,28.8c82.5-44.1,97.8-103.6,97.8-377.8c0-278.1,19.2-341.4,109.3-379.7c40.3-15.3,456.4-21.1,1597.5-17.2l1543.8,5.7l82.5,44.1c126.6,67.1,228.2,168.8,285.8,287.7l53.7,109.3V108.8v2512.3L9852,2717c-59.4,122.7-174.5,237.8-297.3,297.3l-95.9,47.9l-1549.6,5.7l-1551.5,3.8l-65.2-65.2l-65.2-65.2v-260.8c0-301.1-19.2-362.5-128.5-406.6c-82.5-36.4-178.4-9.6-235.9,63.3c-34.5,44.1-38.3,78.6-38.3,297.3c0,170.7-7.7,266.6-26.9,312.6c-55.6,134.2,130.4,124.7-2661.9,122.7C1751.2,3068,592.9,3062.2,560.3,3054.6z M5408.5,2488.8c5.7-118.9,23-211,47.9-268.5c51.8-113.2,193.7-264.7,291.5-308.8c61.4-28.8,76.7-44.1,76.7-86.3c0-65.2,57.5-141.9,132.3-172.6c113.1-46,270.4,59.5,270.4,182.2c0,26.8,28.8,53.7,86.3,84.4c101.6,53.7,201.4,159.2,260.8,274.3c32.6,63.3,46,128.5,53.7,274.2l11.5,191.8l1338.6,5.7c1189,3.8,1346.3,0,1403.8-26.8c132.3-61.4,124.7,99.7,124.7-2527.7c0-2006-3.8-2381.9-26.9-2437.5c-55.6-130.4,3.8-124.7-1497.8-124.7H6630.1v163c0,272.3-113.2,475.6-324.1,583c-53.7,28.8-78.6,53.7-78.6,80.5c0,166.9-226.3,255.1-347.1,134.2c-36.4-36.4-55.6-76.7-55.6-113.1c0-47.9-13.4-65.2-80.6-99.7c-222.5-113.2-341.4-333.7-341.4-627.1v-120.8H3034.2c-2627.4,0-2458.6-7.7-2514.2,124.7c-23,55.6-26.9,431.5-26.9,2437.5c0,2115.3,3.8,2378.1,30.7,2433.7c61.4,132.3-101.7,124.7,2512.3,124.7H5397L5408.5,2488.8z"/>
      <path d="M5947.4,1115.7c-23-7.7-59.5-40.3-82.5-69c-36.4-46-40.3-74.8-40.3-316.4c0-289.6,15.3-349,97.8-393.1c92.1-46,166.9-34.5,239.7,38.4l65.2,65.2v260.8c0,299.2-19.2,362.5-124.7,406.6C6027.9,1138.7,6004.9,1138.7,5947.4,1115.7z"/>
      <path d="M5880.3-263.2l-55.6-55.6v-291.5v-291.5l55.6-55.6c92.1-90.1,249.3-71,314.5,40.3c26.9,42.2,32.6,105.5,32.6,306.9c0,147.7-9.6,268.5-21.1,293.4c-36.4,72.9-97.8,109.3-186,109.3C5953.2-207.6,5926.3-219.1,5880.3-263.2z"/>
    </g>
    <g transform="translate(50,100) scale(0.1,0.1)">{{ qr_code|safe }}</g>
    <text x="290" y="580" class="promo_help">scan it from your phone</text>
    <g transform="translate(800, 200)">
      <text x="0" y="0" class="promo_desc">coupon</text>
      <g transform="translate(0, 150)">
        <text x="0" y="0" class="promo_name">{{ name }}</text>
        <text x="0" y="40" class="promo_help">use this code</text>
        <text x="0" y="70" class="promo_help">on purchase</text>
      </g>
      <text x="0" y="300" class="promo_desc">{{ discount }}</text>
      <text x="0" y="350" class="promo_desc">discount</text>
    </g>
  </g>
</svg>
